# xmcd
#
# Track frame offsets: 
#        150
#        12882
#        25523
#        39053
#        52504
#        63294
#        78994
#        91893
#        103607
#        115858
#        127101
#        133877
#
# Disc length: 2033 seconds
#
# Revision: 0
# Processed by: cddbd v1.5.2PL0 Copyright (c) Steve Scherf et al.
# Submitted via: ExactAudioCopyFreeDBPlugin 1.0
#
DISCID=8607ef0c
DTITLE=Various Artist - Country Gospel
DYEAR=2010
DGENRE=Country
TTITLE0=The Oak Ridge Boys - You'll Never Walk Alone
TTITLE1=Boxcar Willie - Peace in the Valley
TTITLE2=Patsy Cline - Life's Railway to Heaven
TTITLE3=Johnny Paycheck - Amazing Grace
TTITLE4=Ferlin Husky - On the Wings of a Dove
TTITLE5=Holly Dunn - What a Friend We Have in Jesus
TTITLE6=Wilma Lee Cooper - Walking My Lord Up Calvary Hill
TTITLE7=Porter Wagoner - What Would You Do if Jesus Came to Your House
TTITLE7=?
TTITLE8=The Oak Ridge Boys - When I Lay My Burdens Down
TTITLE9=Jeanne Pruett - Old Time Religion
TTITLE10=Boxcar Willie - I Saw the Light
TTITLE11=Holly Dunn - Sweet Hour of Prayer
EXTD=
EXTT0=
EXTT1=
EXTT2=
EXTT3=
EXTT4=
EXTT5=
EXTT6=
EXTT7=
EXTT8=
EXTT9=
EXTT10=
EXTT11=
PLAYORDER=
